# .PCD v0.7 - freely-redistributable tiny synthetic sample
# A 24-point cube shell used for the offline visualization / io smoke demo.
VERSION 0.7
FIELDS x y z
SIZE 4 4 4
TYPE F F F
COUNT 1 1 1
WIDTH 24
HEIGHT 1
VIEWPOINT 0 0 0 1 0 0 0
POINTS 24
DATA ascii
0.0 0.0 0.0
1.0 0.0 0.0
2.0 0.0 0.0
0.0 1.0 0.0
0.0 2.0 0.0
0.0 0.0 1.0
0.0 0.0 2.0
2.0 2.0 0.0
2.0 0.0 2.0
0.0 2.0 2.0
2.0 2.0 2.0
1.0 1.0 1.0
-1.0 -1.0 -1.0
-2.0 0.0 0.0
0.0 -2.0 0.0
0.0 0.0 -2.0
1.5 0.5 0.5
0.5 1.5 0.5
0.5 0.5 1.5
-1.5 -0.5 0.5
1.0 -1.0 1.0
-1.0 1.0 -1.0
2.0 -2.0 0.0
-2.0 2.0 2.0
